<?xml version="1.0" encoding="UTF-8"?>
<svg xmlns="http://www.w3.org/2000/svg" viewBox="0 0 922.89 1052.08">
  <defs>
    <style>
      .cls-1 {
        fill: none;
        stroke: #d1d3d4;
        stroke-linecap: round;
        stroke-linejoin: round;
        stroke-width: 30px;
      }

      .cls-2 {
        fill: #0072d9;
      }

      .cls-3 {
        fill: #a7a9ac;
      }

      .cls-4 {
        fill: #00aeef;
      }

      .cls-5 {
        fill: #2e3192;
      }

      .cls-6 {
        fill: #808285;
      }
    </style>
  </defs>
  <g id="Layer_4" data-name="Layer 4">
    <g>
      <path class="cls-2" d="m211.74,409.06s14.99-100.17,132.57-111.07c112.64-10.44,162.36,33.3,162.36,33.3,0,0-140.96,160.81-294.94,77.77Z"/>
      <path class="cls-4" d="m704.21,283.52s41.38,46.9,41.38,100.7v360.04s-2.76,66.21-59.32,92.42c-56.56,26.21-237.96,97.14-426.31-2.82,0,0-48.41-31.22-48.22-91.47.14-45.52,0-333.34,0-333.34,0,0,115.88,46.9,228.99-31.73,113.12-78.63,104.84-84.15,263.48-93.8Z"/>
      <path class="cls-1" d="m735.51,221.28v38.12s-.88,11.03,7.89,23.04c8.76,12.01,32.86,49.26,32.86,49.26,0,0,8.76,8.76,8.76,36.37s11.39,302.35,1.75,368.08c0,0,1.75,15.34-7.01,32.86-8.76,17.53-30.34,64.85-30.34,64.85,0,0-9.97,17.97-32.76,30.24-22.79,12.27-86.44,66.17-237.99,64.41"/>
      <path class="cls-1" d="m221.83,221.28v38.12s.88,11.03-7.89,23.04-32.86,49.26-32.86,49.26c0,0-8.76,8.76-8.76,36.37,0,27.61-11.39,302.35-1.75,368.08,0,0-1.75,15.34,7.01,32.86,8.76,17.53,30.34,64.85,30.34,64.85,0,0,9.97,17.97,32.76,30.24,22.79,12.27,86.44,66.17,237.99,64.41"/>
      <path class="cls-3" d="m478.67,0c-159.72.83-242.96,56.58-270.76,72.38-27.8,15.81-23.79,32.45-23.79,32.45,0,0-2.5,100.67,0,108.99s23.79,14.98,23.79,14.98c111.98-69.05,270.76-63.23,270.76-63.23h0s158.78-5.82,270.76,63.23c0,0,21.29-6.66,23.79-14.98s0-108.99,0-108.99c0,0,4.01-16.64-23.79-32.45C721.62,56.58,638.39.83,478.66,0"/>
      <path class="cls-6" d="m184.13,213.82s91.97-75.33,294.54-74.51c202.57.82,294.54,74.51,294.54,74.51,0,0-13.05,14.2-23.79,14.98,0,0-80.5-63.19-270.76-63.23,0,0-128.1-9.84-270.75,63.23,0,0-17.92-7.75-23.79-14.98Z"/>
    </g>
  </g>
  <g id="Layer_3" data-name="Layer 3">
    <path class="cls-5" d="m780.9,881.29l40.21.72c101.66-2.56,91.82-134.06,92.08-116.57,0-123.42-101.09-126.54-101.09-126.54h-188.03v411.7h68.62v-161.29l148.82,161.29h81.4l-141.99-169.31Zm-90.57-59.55v-116.84h107.32s50.8-2,50.8,58.4-47.33,58.44-47.33,58.44h-110.8Z"/>
    <path class="cls-5" d="m481.3,638.9l-196.25,411.7h78.71l50.53-102.89h100.09v102.89h69v-411.7h-102.09Zm35.25,254.15l-80.84.34,80.84-162.24v161.9Z"/>
    <path class="cls-5" d="m447.14,638.9l-173.54,346.12s-47.24,105.01-175.6,52.21C-42.37,979.49,7.72,867.3,12.8,857.08s19.69-31.09,19.69-31.09l53.6,32.39s-49.43,68.59,20.85,109.74,104.06-14.38,104.06-14.38l128.95-253.52-86.28-.85,1.08-60.45h192.39Z"/>
  </g>
</svg>