<?xml version="1.0" encoding="UTF-8"?>
<svg xmlns="http://www.w3.org/2000/svg" viewBox="0 0 2336.87 943.56">
  <defs>
    <style>
      .cls-1 {
        fill: none;
        stroke: #d1d3d4;
        stroke-linecap: round;
        stroke-linejoin: round;
        stroke-width: 30px;
      }

      .cls-2 {
        fill: #0072d9;
      }

      .cls-3 {
        fill: #a7a9ac;
      }

      .cls-4 {
        fill: #00aeef;
      }

      .cls-5 {
        fill: #2e3192;
      }

      .cls-6 {
        fill: #808285;
      }
    </style>
  </defs>
  <g id="Layer_4" data-name="Layer 4">
    <g>
      <path class="cls-2" d="m60.05,409.06s14.99-100.17,132.57-111.07c112.64-10.44,162.36,33.3,162.36,33.3,0,0-140.96,160.81-294.94,77.77Z"/>
      <path class="cls-4" d="m552.52,283.52s41.38,46.9,41.38,100.7v360.04s-2.76,66.21-59.32,92.42c-56.56,26.21-237.96,97.14-426.31-2.82,0,0-48.41-31.22-48.22-91.47.14-45.52,0-333.34,0-333.34,0,0,115.88,46.9,228.99-31.73,113.12-78.63,104.84-84.15,263.48-93.8Z"/>
      <path class="cls-1" d="m583.81,221.28v38.12s-.88,11.03,7.89,23.04c8.76,12.01,32.86,49.26,32.86,49.26,0,0,8.76,8.76,8.76,36.37s11.39,302.35,1.75,368.08c0,0,1.75,15.34-7.01,32.86s-30.34,64.85-30.34,64.85c0,0-9.97,17.97-32.76,30.24-22.79,12.27-86.44,66.17-237.99,64.41"/>
      <path class="cls-1" d="m70.14,221.28v38.12s.88,11.03-7.89,23.04-32.86,49.26-32.86,49.26c0,0-8.76,8.76-8.76,36.37,0,27.61-11.39,302.35-1.75,368.08,0,0-1.75,15.34,7.01,32.86,8.76,17.53,30.34,64.85,30.34,64.85,0,0,9.97,17.97,32.76,30.24,22.79,12.27,86.44,66.17,237.99,64.41"/>
      <path class="cls-3" d="m326.98,0C167.26.83,84.02,56.58,56.22,72.38c-27.8,15.81-23.79,32.45-23.79,32.45,0,0-2.5,100.67,0,108.99s23.79,14.98,23.79,14.98c111.98-69.05,270.76-63.23,270.76-63.23h0s158.78-5.82,270.76,63.23c0,0,21.29-6.66,23.79-14.98,2.5-8.32,0-108.99,0-108.99,0,0,4.01-16.64-23.79-32.45C569.93,56.58,486.69.83,326.97,0"/>
      <path class="cls-6" d="m32.44,213.82s91.97-75.33,294.54-74.51c202.57.82,294.54,74.51,294.54,74.51,0,0-13.05,14.2-23.79,14.98,0,0-80.5-63.19-270.76-63.23,0,0-128.1-9.84-270.75,63.23,0,0-17.92-7.75-23.79-14.98Z"/>
    </g>
  </g>
  <g id="Layer_3" data-name="Layer 3">
    <g>
      <path class="cls-5" d="m2086,542.64l71.04,1.27c179.61-4.52,162.22-236.86,162.68-205.95,0-218.05-178.61-223.57-178.61-223.57h-332.2v727.39h121.23v-284.97l262.93,284.97h143.81l-250.87-299.14Zm-160.02-105.21v-206.43h189.62s89.75-3.54,89.75,103.19-83.62,103.24-83.62,103.24h-195.75Z"/>
      <path class="cls-5" d="m1556.68,114.4l-346.73,727.39h139.07l89.28-181.78h176.84v181.78h121.9V114.4h-180.37Zm62.28,449.03l-142.83.61,142.83-286.64v286.04Z"/>
      <path class="cls-5" d="m1496.31,114.4l-306.61,611.53s-83.46,185.52-310.24,92.24c-248-102.01-159.5-300.23-150.53-318.3,8.97-18.07,34.79-54.94,34.79-54.94l94.7,57.23s-87.33,121.19,36.83,193.88c123.65,72.39,183.84-25.41,183.84-25.41l227.82-447.91-152.43-1.51,1.92-106.81h339.92Z"/>
    </g>
  </g>
</svg>