<?xml version="1.0" encoding="UTF-8"?>
<svg id="Layer_5" data-name="Layer 5" xmlns="http://www.w3.org/2000/svg" viewBox="0 0 567.2 567.2">
  <path d="m283.6,0C126.97,0,0,126.97,0,283.6s126.97,283.6,283.6,283.6,283.6-126.97,283.6-283.6S440.23,0,283.6,0Zm-83.89,444.96c0,4.39-3.56,7.96-7.96,7.96h-58.28c-4.39,0-7.96-3.56-7.96-7.96v-219.1c0-4.39,3.56-7.96,7.96-7.96h58.28c4.39,0,7.96,3.56,7.96,7.96v219.1Zm-37.1-246.19c-26.6,0-48.17-21.57-48.17-48.17s21.57-48.17,48.17-48.17,48.17,21.57,48.17,48.17-21.57,48.17-48.17,48.17Zm299.74,119.59v124.38c0,9.19-10.18,10.18-10.18,10.18h-54.27c-11.32,0-10.99-10.38-10.99-10.38v-114.53c0-50.06-36.88-55.1-53.93-47.28-26.47,12.14-26.63,44.61-26.63,44.61v118.86c0,8.66-9.32,8.72-9.32,8.72h-54.27c-10.99,0-9.99-10.38-9.99-10.38v-214.74c0-11.32,11.32-9.89,11.32-9.89h51.94c10.99,0,11.32,10.89,11.32,10.89v17.65c29.3-43.61,94.11-29.77,94.11-29.77,0,0,28.36,5.32,44.94,31.78,17.13,27.33,15.96,69.91,15.96,69.91Z"/>
</svg>