<?xml version="1.0" encoding="UTF-8"?>
<svg id="Layer_4" data-name="Layer 4" xmlns="http://www.w3.org/2000/svg" viewBox="0 0 567.2 567.2">
  <path d="m352.3,143.1h-149c-40.04,0-72.51,32.46-72.51,72.51v149c0,40.04,32.46,72.51,72.51,72.51h149c40.04,0,72.51-32.46,72.51-72.51v-149c0-40.04-32.46-72.51-72.51-72.51Zm-74.89,239.34c-50.85,0-92.08-41.23-92.08-92.08s41.23-92.08,92.08-92.08,92.08,41.23,92.08,92.08-41.23,92.08-92.08,92.08Zm96.01-165.75c-11.75,0-21.28-9.53-21.28-21.28s9.53-21.28,21.28-21.28,21.28,9.53,21.28,21.28-9.53,21.28-21.28,21.28Z"/>
  <circle cx="277.8" cy="289.54" r="59.56"/>
  <path d="m283.6,0C126.97,0,0,126.97,0,283.6s126.97,283.6,283.6,283.6,283.6-126.97,283.6-283.6S440.23,0,283.6,0Zm173.04,362.37c0,58.62-47.52,106.13-106.13,106.13h-145.67c-58.62,0-106.13-47.52-106.13-106.13v-145.67c0-58.62,47.52-106.13,106.13-106.13h145.67c58.62,0,106.13,47.52,106.13,106.13v145.67Z"/>
</svg>